<?xml version="1.0" standalone="no"?>
<!DOCTYPE svg PUBLIC "-//W3C//DTD SVG 20010904//EN"
 "http://www.w3.org/TR/2001/REC-SVG-20010904/DTD/svg10.dtd">
<svg version="1.0" xmlns="http://www.w3.org/2000/svg"
 width="512.000000pt" height="512.000000pt" viewBox="0 0 512.000000 512.000000"
 preserveAspectRatio="xMidYMid meet">
<metadata>
Created by potrace 1.11, written by Peter Selinger 2001-2013
</metadata>
<g transform="translate(0.000000,512.000000) scale(0.100000,-0.100000)"
fill="#000000" stroke="none">
<path d="M3790 4754 c-52 -13 -129 -31 -170 -40 -41 -9 -82 -17 -90 -19 -8 -2
-49 -11 -90 -20 -41 -9 -86 -19 -100 -21 -14 -3 -68 -14 -120 -25 -52 -10
-108 -21 -125 -24 -16 -3 -61 -12 -100 -20 -73 -15 -495 -94 -530 -99 -11 -2
-33 -6 -50 -9 -16 -4 -46 -9 -65 -12 -19 -3 -55 -9 -80 -15 -43 -8 -182 -34
-245 -45 -71 -12 -232 -41 -275 -50 -14 -3 -54 -10 -90 -16 -36 -5 -83 -14
-105 -19 -22 -5 -103 -21 -180 -35 -77 -14 -187 -35 -244 -46 -57 -12 -116
-23 -130 -25 -14 -3 -54 -11 -89 -19 -34 -8 -77 -17 -95 -20 -17 -3 -61 -12
-97 -20 -263 -59 -386 -87 -389 -91 -2 -2 874 -4 1947 -4 l1951 0 -10 33 c-5
17 -27 100 -49 182 -21 83 -46 177 -55 210 -9 33 -23 88 -32 122 -25 105 -75
158 -158 166 -22 3 -82 -6 -135 -19z"/>
<path d="M239 3866 c-67 -18 -108 -46 -156 -104 -77 -95 -72 23 -70 -1672 l2
-1515 21 -46 c45 -97 125 -161 220 -178 38 -6 840 -9 2216 -9 2070 1 2160 2
2210 20 63 22 113 61 151 116 53 78 56 103 54 479 l-2 346 -675 -1 c-371 0
-699 4 -729 9 -148 25 -281 153 -315 302 -8 36 -11 192 -10 517 1 504 1 496
59 596 52 88 173 172 272 188 15 2 337 5 715 5 l688 1 -3 363 c-2 348 -3 364
-24 409 -28 61 -101 133 -161 161 l-47 22 -2185 2 c-1708 1 -2195 -1 -2231
-11z"/>
<path d="M3485 2685 c-43 -20 -60 -36 -84 -78 -20 -36 -21 -47 -18 -505 l2
-468 25 -37 c14 -20 44 -46 67 -57 42 -19 63 -20 761 -20 511 0 729 3 753 11
43 15 76 44 100 90 17 34 18 68 19 488 0 433 0 453 -20 490 -11 22 -36 52 -57
68 l-36 28 -741 2 c-622 2 -746 0 -771 -12z m842 -241 c186 -61 282 -253 220
-439 -52 -154 -235 -256 -397 -221 -198 44 -319 253 -255 441 62 179 255 278
432 219z"/>
</g>
</svg>
